<svg xmlns="http://www.w3.org/2000/svg" height="48" viewBox="0 0 24 24" width="48"><path d="m22 3.999c-.78.463-2.345 1.094-3.265 1.276-.027.007-.049.016-.075.023-.813-.802-1.927-1.299-3.16-1.299-2.485 0-4.5 2.015-4.5 4.5 0 .131-.011.372 0 .5-3.353 0-5.905-1.756-7.735-4-.199.5-.286 1.29-.286 2.032 0 1.401 1.095 2.777 2.8 3.63-.314.081-.66.139-1.02.139-.581 0-1.196-.153-1.759-.617v.051c0 1.958 2.078 3.291 3.926 3.662-.375.221-1.131.243-1.5.243-.26 0-1.18-.119-1.426-.165.514 1.605 2.368 2.507 4.135 2.539-1.382 1.084-2.341 1.486-5.171 1.486h-.964c1.788 1.146 4.065 2.001 6.347 2.001 7.43 0 11.653-5.663 11.653-11.001 0-.086-.002-.266-.005-.447 0-.018.005-.035.005-.053 0-.027-.008-.053-.008-.08-.003-.136-.006-.263-.009-.329.79-.57 1.475-1.281 2.017-2.091-.725.322-1.503.538-2.32.636.834-.5 2.019-1.692 2.32-2.636z" fill="#ffffff"/></svg>