<svg xmlns="http://www.w3.org/2000/svg" height="48" viewBox="0 0 24 24" width="48"><path d="m12 2c-5.523437 0-10 4.476563-10 10 0 5.523438 4.476563 10 10 10 5.523438 0 10-4.476562 10-10 0-5.523437-4.476562-10-10-10zm0 2c4.410156 0 8 3.589844 8 8 0 .46875-.046875.929688-.125 1.375-.246094-.054687-.609375-.121094-1.03125-.125-.3125-.003906-.703125.046875-1.03125.09375.113281-.347656.1875-.730469.1875-1.125 0-.960937-.46875-1.855469-1.21875-2.59375.207031-.769531.410156-2.089844-.125-2.625-1.582031 0-2.457031 1.128906-2.5 1.1875-.488281-.117187-.992187-.1875-1.53125-.1875-.691406 0-1.351562.125-1.96875.3125l.1875-.15625s-.878906-1.21875-2.5-1.21875c-.566406.570313-.308594 2.015625-.09375 2.75-.765625.730469-1.25 1.59375-1.25 2.53125 0 .328125.078125.640625.15625.9375-.277344-.03125-1.277344-.125-1.6875-.125-.363281 0-.925781.085938-1.375.1875-.0625-.398437-.09375-.804687-.09375-1.21875 0-4.410156 3.589844-8 8-8zm-6.53125 9.28125c.394531 0 1.59375.140625 1.75.15625.019531.054688.039063.105469.0625.15625-.429687-.039062-1.261719-.097656-1.8125-.03125-.367187.042969-.835937.175781-1.25.28125-.03125-.125-.070312-.246094-.09375-.375.4375-.09375 1.011719-.1875 1.34375-.1875zm13.375.21875c.398438.003906.761719.070313 1 .125-.011719.066406-.046875.121094-.0625.1875-.253906-.058594-.671875-.144531-1.15625-.15625-.234375-.003906-.609375.007813-.9375.03125.015625-.03125.019531-.0625.03125-.09375.339844-.046875.773438-.097656 1.125-.09375zm-12.75.28125c.5625.003906 1.089844.042969 1.3125.0625.523438.976563 1.582031 1.699219 3.21875 2-.402344.222656-.761719.535156-1.03125.90625-.234375.019531-.480469.03125-.71875.03125-.695312 0-1.128906-.621094-1.5-1.15625-.375-.535156-.835937-.59375-1.09375-.625-.261719-.03125-.351562.117188-.21875.21875.761719.585938 1.035156 1.28125 1.34375 1.90625.277344.5625.859375.875 1.5.875h.125c-.019531.109375-.03125.210938-.03125.3125v1.09375c-2.308594-.933594-4.066406-2.90625-4.71875-5.34375.410156-.101562.871094-.207031 1.21875-.25.160156-.019531.363281-.035156.59375-.03125zm12.53125.125c.449219.011719.847656.097656 1.09375.15625-.550781 2.070313-1.910156 3.792969-3.71875 4.84375v-.59375c0-.851562-.671875-1.945312-1.625-2.46875 1.582031-.289062 2.613281-.980469 3.15625-1.90625.378906-.027344.824219-.039062 1.09375-.03125zm-6.125 4.09375c.273438 0 .5.226563.5.5v1.4375c-.328125.042969-.660156.0625-1 .0625v-1.5c0-.273437.226563-.5.5-.5zm-2 1c.273438 0 .5.226563.5.5v.4375c-.335937-.042969-.675781-.105469-1-.1875v-.25c0-.273437.226563-.5.5-.5zm4 0c.242188 0 .453125.175781.5.40625-.324219.132813-.65625.253906-1 .34375v-.25c0-.273437.226563-.5.5-.5z" fill="#ffffff"/></svg>