<svg xmlns="http://www.w3.org/2000/svg" width="214.6821" height="55.7379" viewBox="0 0 214.6821 55.7379"><title>logo_color</title><g id="Layer_2" data-name="Layer 2"><g id="Layer_1-2" data-name="Layer 1"><path d="M48.86,55.3052V28.4431h5.4084L64.3279,41.784H61.8043l9.771-13.3409h5.409V55.3052H71.395V34.6087l2.2357.5048L63.2828,48.4544h-.7212L52.5737,35.1135l1.8751-.5048V55.3052Z" fill="#231f20"/><path d="M92.8127,55.7379a14.9161,14.9161,0,0,1-5.6247-1.0457A13.6384,13.6384,0,0,1,78.57,41.8561a13.9624,13.9624,0,0,1,1.0638-5.48,13.2309,13.2309,0,0,1,2.9924-4.3993,13.8394,13.8394,0,0,1,4.5254-2.92,15.845,15.845,0,0,1,11.3216,0,13.8424,13.8424,0,0,1,4.5249,2.92,13.2471,13.2471,0,0,1,2.9929,4.3993,13.9731,13.9731,0,0,1,1.0638,5.48,13.6354,13.6354,0,0,1-8.6177,12.8361A14.92,14.92,0,0,1,92.8127,55.7379Zm0-5.0478A8.82,8.82,0,0,0,96.22,50.041a8.5469,8.5469,0,0,0,2.7585-1.821,8.0812,8.0812,0,0,0,1.8391-2.7946,9.5239,9.5239,0,0,0,.6485-3.5693,9.3915,9.3915,0,0,0-.6485-3.5519,8.3234,8.3234,0,0,0-1.8391-2.794,8.18,8.18,0,0,0-2.7585-1.821,9.5138,9.5138,0,0,0-6.8147,0,8.1721,8.1721,0,0,0-2.758,1.821,8.3231,8.3231,0,0,0-1.839,2.794,9.39,9.39,0,0,0-.6491,3.5519,9.522,9.522,0,0,0,.6491,3.5693,8.081,8.081,0,0,0,1.839,2.7946,8.5383,8.5383,0,0,0,2.758,1.821A8.823,8.823,0,0,0,92.8127,50.69Z" fill="#231f20"/><path d="M108.4609,55.3052V28.4431h4.2905l14.4227,19.0017-2.3078.5409V28.4431h5.5886V55.3052h-4.3266l-14.17-19.1459,2.0914-.5409V55.3052Z" fill="#231f20"/><path d="M142.8583,55.7379a12.2527,12.2527,0,0,1-4.7413-.92,10.8631,10.8631,0,0,1-6.22-6.6164l4.579-2.0554a8.4385,8.4385,0,0,0,2.7946,3.4617,6.6819,6.6819,0,0,0,3.948,1.2621,4.952,4.952,0,0,0,1.9832-.3606,3.1228,3.1228,0,0,0,1.2982-.9916,2.4414,2.4414,0,0,0,.4688-1.4965,2.3729,2.3729,0,0,0-.577-1.6046,3.9331,3.9331,0,0,0-1.803-1.0638l-5.2641-1.73a10.2966,10.2966,0,0,1-4.832-2.9749,6.9627,6.9627,0,0,1-1.6221-4.6331,7.5027,7.5027,0,0,1,1.1719-4.1829,7.8452,7.8452,0,0,1,3.2809-2.8121,11.11,11.11,0,0,1,4.8494-1.01,11.844,11.844,0,0,1,4.4714.8293,10.4023,10.4023,0,0,1,3.5513,2.3436,9.7613,9.7613,0,0,1,2.2537,3.6418L147.9066,36.88a6.4355,6.4355,0,0,0-2.2717-2.9388,5.8772,5.8772,0,0,0-3.4618-1.0638,5.1237,5.1237,0,0,0-1.9827.3606,2.983,2.983,0,0,0-1.3342,1.0277,2.5988,2.5988,0,0,0-.4688,1.5326,2.4166,2.4166,0,0,0,.6131,1.6407,4.0179,4.0179,0,0,0,1.839,1.0992l5.1559,1.6588a10.4223,10.4223,0,0,1,4.85,2.9208,6.8024,6.8024,0,0,1,1.6046,4.579,7.2808,7.2808,0,0,1-1.226,4.1643,8.2717,8.2717,0,0,1-3.371,2.8487A11.4411,11.4411,0,0,1,142.8583,55.7379Z" fill="#231f20"/><path d="M159.1555,55.3052V33.3106h-6.8147V28.4431h19.11v4.8675h-6.7066V55.3052Z" fill="#231f20"/><path d="M173.3612,55.3052V28.4431h18.0642v4.8675H178.95V39.404h11.7543v4.8681H178.95v6.1656h12.4755v4.8675Z" fill="#231f20"/><path d="M193.4087,55.3052V28.4431h10.2758a11.7965,11.7965,0,0,1,4.9216.9733,7.6831,7.6831,0,0,1,3.3715,2.8845,8.58,8.58,0,0,1,1.226,4.7238,8.3421,8.3421,0,0,1-1.262,4.6691,7.8906,7.8906,0,0,1-3.39,2.9028l6.13,10.7086h-6.2738l-6.635-11.8625,3.606,2.127h-6.382v9.7355Zm5.5886-14.603h4.7233a4.2524,4.2524,0,0,0,2.0553-.4688,3.4233,3.4233,0,0,0,1.3523-1.2981,3.7028,3.7028,0,0,0,.4868-1.9106,3.7789,3.7789,0,0,0-.4868-1.9472,3.4311,3.4311,0,0,0-1.3523-1.2982,4.2592,4.2592,0,0,0-2.0553-.4687h-4.7233Z" fill="#231f20"/><path d="M52.9979,22.4386V3.4682H47.1292V.3558H62.2461V3.4682h-5.78v18.97Z" fill="#231f20"/><path d="M63.8169,22.4386V0h3.35V9.5445l-.5336-.415A4.5123,4.5123,0,0,1,68.53,6.8324a5.7478,5.7478,0,0,1,3.0234-.7854,6.2792,6.2792,0,0,1,3.1422.7705,5.5463,5.5463,0,0,1,2.1337,2.1343A6.2139,6.2139,0,0,1,77.6,12.0642V22.4386H74.28V12.9831a4.2657,4.2657,0,0,0-.4592-2.06,3.2757,3.2757,0,0,0-1.26-1.304,3.875,3.875,0,0,0-3.6606,0,3.22,3.22,0,0,0-1.275,1.319,4.28,4.28,0,0,0-.4592,2.0452v9.4555Z" fill="#231f20"/><path d="M87.5007,22.7944a8.1078,8.1078,0,0,1-4.2539-1.1116,7.7972,7.7972,0,0,1-2.89-3.0234A8.83,8.83,0,0,1,79.32,14.3762a8.6059,8.6059,0,0,1,1.0519-4.2981,7.96,7.96,0,0,1,2.8313-2.9493A7.603,7.603,0,0,1,87.2336,6.047a7.9907,7.9907,0,0,1,3.2313.6223,6.9406,6.9406,0,0,1,2.4008,1.7044,7.6313,7.6313,0,0,1,1.497,2.4751,8.4375,8.4375,0,0,1,.5184,2.9643q0,.3854-.0293.8a4.5021,4.5021,0,0,1-.1189.7705H81.9577V12.7163H92.8358l-1.6007,1.2154a4.2883,4.2883,0,0,0-.1921-2.5938,3.9946,3.9946,0,0,0-3.8094-2.4751,4.2875,4.2875,0,0,0-2.3709.6671,4.3312,4.3312,0,0,0-1.6007,1.897,6.0982,6.0982,0,0,0-.4445,2.9789,5.1987,5.1987,0,0,0,.4592,2.8456,4.5648,4.5648,0,0,0,1.719,1.8971A4.7494,4.7494,0,0,0,87.53,19.83a4.5069,4.5069,0,0,0,2.4751-.6522,4.8039,4.8039,0,0,0,1.6154-1.6894l2.727,1.3336A5.7566,5.7566,0,0,1,92.88,20.8528a7.2871,7.2871,0,0,1-2.3709,1.4227A8.4813,8.4813,0,0,1,87.5007,22.7944Z" fill="#231f20"/><path d="M102.2316,22.4386V.3558h8.0328a8.9039,8.9039,0,0,1,3.9125.8153A6.24,6.24,0,0,1,116.83,3.5423a6.9329,6.9329,0,0,1,.9629,3.72,6.6482,6.6482,0,0,1-1.141,3.9125,6.4987,6.4987,0,0,1-3.0679,2.3715l5.0985,8.8923H114.71l-5.4241-9.6335,2.2824,1.3339h-5.8393v8.3Zm3.4978-11.412h4.5942a4.4092,4.4092,0,0,0,2.1044-.4741,3.4116,3.4116,0,0,0,1.3787-1.319,3.93,3.93,0,0,0,.489-2.0007,3.93,3.93,0,0,0-.489-2.0011,3.3175,3.3175,0,0,0-1.3787-1.304,4.528,4.528,0,0,0-2.1044-.46h-4.5942Z" fill="#231f20"/><path d="M127.0411,22.7944a8.1078,8.1078,0,0,1-4.2539-1.1116,7.7972,7.7972,0,0,1-2.89-3.0234,8.83,8.83,0,0,1-1.0373-4.2832,8.6059,8.6059,0,0,1,1.0519-4.2981,7.96,7.96,0,0,1,2.8312-2.9493A7.6036,7.6036,0,0,1,126.774,6.047a7.9907,7.9907,0,0,1,3.2313.6223,6.9406,6.9406,0,0,1,2.4008,1.7044,7.6313,7.6313,0,0,1,1.497,2.4751,8.4375,8.4375,0,0,1,.5184,2.9643q0,.3854-.0293.8a4.5021,4.5021,0,0,1-.1189.7705H121.4981V12.7163h10.8781l-1.6007,1.2154a4.2883,4.2883,0,0,0-.1921-2.5938,3.9946,3.9946,0,0,0-3.8094-2.4751,4.2875,4.2875,0,0,0-2.3709.6671,4.3312,4.3312,0,0,0-1.6007,1.897,6.0982,6.0982,0,0,0-.4445,2.9789,5.1987,5.1987,0,0,0,.4592,2.8456,4.5648,4.5648,0,0,0,1.719,1.8971,4.7494,4.7494,0,0,0,2.5343.6817,4.5069,4.5069,0,0,0,2.4751-.6522,4.8039,4.8039,0,0,0,1.6154-1.6894l2.727,1.3336a5.7566,5.7566,0,0,1-1.4672,2.0306,7.2871,7.2871,0,0,1-2.3709,1.4227A8.4813,8.4813,0,0,1,127.0411,22.7944Z" fill="#231f20"/><path d="M142.5726,22.7944a7.68,7.68,0,0,1-4.313-1.2153,6.43,6.43,0,0,1-2.5935-3.2606l2.5788-1.2153a5.45,5.45,0,0,0,1.7934,2.1639,4.3131,4.3131,0,0,0,2.5343.8,3.2227,3.2227,0,0,0,1.9264-.5336,1.6964,1.6964,0,0,0,.7415-1.4525,1.4053,1.4053,0,0,0-.3263-.9634,2.5579,2.5579,0,0,0-.8153-.6074,4.7779,4.7779,0,0,0-.9927-.3558l-2.52-.7114a6.171,6.171,0,0,1-3.0972-1.7934,4.1869,4.1869,0,0,1-1.0226-2.8011,4.3754,4.3754,0,0,1,.7409-2.5343A4.8394,4.8394,0,0,1,139.2529,6.64a7.0177,7.0177,0,0,1,2.9343-.5927A7.1934,7.1934,0,0,1,146.1,7.1288a5.8544,5.8544,0,0,1,2.4306,3.0087l-2.5788,1.2153a3.9679,3.9679,0,0,0-1.4965-1.8379,4.051,4.051,0,0,0-2.2976-.6817,2.7314,2.7314,0,0,0-1.7489.5189,1.6444,1.6444,0,0,0-.6519,1.3486,1.4461,1.4461,0,0,0,.2963.9336,2.1141,2.1141,0,0,0,.7708.593,6.82,6.82,0,0,0,.9781.37l2.6087.7705a6.2474,6.2474,0,0,1,3.0527,1.7638,4.16,4.16,0,0,1,1.0671,2.86,4.2645,4.2645,0,0,1-.7555,2.5047,5.0177,5.0177,0,0,1-2.09,1.69A7.4487,7.4487,0,0,1,142.5726,22.7944Z" fill="#231f20"/><path d="M156.2966,22.7944a6.0583,6.0583,0,0,1-3.1715-.8153,5.56,5.56,0,0,1-2.12-2.2824,7.31,7.31,0,0,1-.7562-3.3938v-9.9h3.35v9.604a4.0175,4.0175,0,0,0,.4446,1.9266,3.1907,3.1907,0,0,0,1.2452,1.2894,3.9086,3.9086,0,0,0,3.7051-.0149,3.3454,3.3454,0,0,0,1.26-1.3336,4.2188,4.2188,0,0,0,.4592-2.0157V6.4025h3.32V22.4386H160.861v-3.142l.3561.415a4.4531,4.4531,0,0,1-1.8678,2.2825A5.719,5.719,0,0,1,156.2966,22.7944Z" fill="#231f20"/><path d="M166.76,22.4386V6.4025h3.2014V9.8707l-.4152-.5335a4.2649,4.2649,0,0,1,1.8379-2.46,5.66,5.66,0,0,1,3.0532-.83A5.9246,5.9246,0,0,1,177.86,7.07a4.9044,4.9044,0,0,1,2.0008,2.7121l-.9483.089a5.5922,5.5922,0,0,1,2.1782-2.8752,6.064,6.064,0,0,1,3.3648-.9485,5.9573,5.9573,0,0,1,3.0082.7705,5.7882,5.7882,0,0,1,2.1489,2.1343,6.033,6.033,0,0,1,.8007,3.1124V22.4386h-3.35V12.9831a4.509,4.509,0,0,0-.43-2.06,3.1694,3.1694,0,0,0-1.1855-1.304,3.3286,3.3286,0,0,0-1.7635-.46,3.4077,3.4077,0,0,0-1.7788.46,3.2119,3.2119,0,0,0-1.2153,1.319,4.4,4.4,0,0,0-.4445,2.0452v9.4555h-3.32V12.9831a4.5078,4.5078,0,0,0-.43-2.06,3.1692,3.1692,0,0,0-1.1854-1.304,3.701,3.701,0,0,0-3.5722,0,3.1128,3.1128,0,0,0-1.2,1.319,4.5236,4.5236,0,0,0-.43,2.0452v9.4555Z" fill="#231f20"/><path d="M200.225,22.7944a8.1081,8.1081,0,0,1-4.2539-1.1116,7.7972,7.7972,0,0,1-2.89-3.0234,8.83,8.83,0,0,1-1.0373-4.2832,8.606,8.606,0,0,1,1.052-4.2981,7.96,7.96,0,0,1,2.8312-2.9493A7.6031,7.6031,0,0,1,199.958,6.047a7.9906,7.9906,0,0,1,3.2312.6223A6.9406,6.9406,0,0,1,205.59,8.3737a7.6313,7.6313,0,0,1,1.497,2.4751,8.4375,8.4375,0,0,1,.5184,2.9643q0,.3854-.0293.8a4.5021,4.5021,0,0,1-.1189.7705H194.682V12.7163H205.56l-1.6008,1.2154a4.2876,4.2876,0,0,0-.1921-2.5938,3.9946,3.9946,0,0,0-3.8093-2.4751,4.2875,4.2875,0,0,0-2.3709.6671,4.3314,4.3314,0,0,0-1.6008,1.897,6.0993,6.0993,0,0,0-.4445,2.9789,5.1987,5.1987,0,0,0,.4592,2.8456,4.5648,4.5648,0,0,0,1.719,1.8971,4.75,4.75,0,0,0,2.5343.6817,4.5074,4.5074,0,0,0,2.4752-.6522,4.8045,4.8045,0,0,0,1.6153-1.6894l2.727,1.3336a5.7575,5.7575,0,0,1-1.4671,2.0306,7.2886,7.2886,0,0,1-2.371,1.4227A8.4813,8.4813,0,0,1,200.225,22.7944Z" fill="#231f20"/><polygon points="35.198 16.629 35.88 21.481 31.72 22.066 31.038 17.213 22.978 18.346 23.66 23.199 19.5 23.783 18.818 18.931 10.757 20.064 11.439 24.916 7.28 25.501 6.598 20.648 0 21.576 0 55.302 41.211 55.302 41.211 15.784 35.198 16.629" fill="#7ac959"/><polygon points="6.013 16.489 5.331 11.636 9.491 11.052 10.173 15.904 18.234 14.771 17.552 9.919 21.711 9.334 22.393 14.187 30.454 13.054 29.772 8.201 33.931 7.617 34.613 12.469 41.211 11.542 41.211 0.354 0 0.354 0 17.334 6.013 16.489" fill="#7ac959"/></g></g></svg>